<?xml version="1.0" encoding="utf-8"?><svg width="276" height="268" viewBox="0 0 276 268" xmlns="http://www.w3.org/2000/svg" xmlns:xlink="http://www.w3.org/1999/xlink"><view id=".product-360" viewBox="242 108 24 24"/><svg width="24" height="24" viewBox="-2 -2 24 24" x="242" y="108" xmlns="http://www.w3.org/2000/svg"><path fill="#2D2D2D" fill-rule="evenodd" d="m16.531 2.427 1.466-.232L17.65 0l-5.487.87.173 1.097.696 4.39 2.194-.348-.324-2.048A7.778 7.778 0 1 1 9.94 2.222V0C4.445.032 0 4.497 0 10c0 5.523 4.477 10 10 10s10-4.477 10-10a9.977 9.977 0 0 0-3.469-7.573zm-11.32 7.09a.777.777 0 0 1 .164-.443.563.563 0 0 1 .411-.158c.172 0 .309.065.391.143.09.086.151.223.151.387a.572.572 0 0 1-.171.43c-.151.129-.398.136-.46.136h-.062v.76h.083c.157 0 .397.014.562.15.11.093.199.258.199.458 0 .194-.076.38-.185.487a.661.661 0 0 1-.46.165.695.695 0 0 1-.507-.193.934.934 0 0 1-.22-.537H4.051c.048.48.247.902.508 1.182.404.422.891.494 1.337.494.37 0 .816-.043 1.207-.416.322-.308.46-.723.46-1.089 0-.257-.076-.558-.213-.752a1.128 1.128 0 0 0-.521-.386.861.861 0 0 0 .342-.301c.144-.208.186-.416.186-.652 0-.466-.158-.781-.35-.974-.233-.244-.638-.423-1.2-.423-.377 0-.823.086-1.159.451-.24.258-.411.68-.453 1.082H5.21zm10.84.96c0-.823-.212-1.554-.658-2.005-.267-.272-.665-.494-1.227-.494-.549 0-.94.215-1.214.494-.446.451-.658 1.182-.658 2.006 0 .816.212 1.54.658 1.998.274.28.665.495 1.214.495.562 0 .96-.222 1.227-.495.446-.458.658-1.182.658-1.998zm-1.878-1.554c.178 0 .301.058.425.18.336.343.384 1.03.384 1.368 0 .372-.062 1.045-.384 1.375a.556.556 0 0 1-.425.18.556.556 0 0 1-.426-.18c-.322-.33-.384-1.003-.384-1.375 0-.337.048-1.025.384-1.369a.556.556 0 0 1 .426-.179zm-4.197-.945-1.05 1.44c-.39.537-.733 1.074-.733 1.833 0 .423.096.824.398 1.16.452.517 1.063.56 1.481.56.405 0 .987-.065 1.406-.538.295-.336.432-.823.432-1.282 0-.58-.233-.924-.398-1.103-.199-.215-.555-.458-1.131-.458-.2 0-.343.028-.48.078L11.107 8.1l-1.131-.122zm.062 4.09a.782.782 0 0 1-.556-.222.787.787 0 0 1-.233-.595c0-.33.144-.523.233-.608.158-.158.35-.208.556-.208.178 0 .377.043.548.2a.77.77 0 0 1 .24.588c0 .308-.116.508-.24.63a.771.771 0 0 1-.548.215z"/></svg><view id=".product-360-selected" viewBox="242 60 28 28"/><svg width="28" height="28" viewBox="-2 -2 28 28" x="242" y="60" xmlns="http://www.w3.org/2000/svg"><path fill="#2D2D2D" fill-rule="evenodd" d="M12 24C5.373 24 0 18.627 0 12S5.373 0 12 0s12 5.373 12 12-5.373 12-12 12zm7.778-12a7.778 7.778 0 1 1-7.838-7.778V2C6.445 2.032 2 6.497 2 12c0 5.523 4.477 10 10 10s10-4.477 10-10a9.964 9.964 0 0 0-2.645-6.776l1.443-.228-.217-1.326c0-.03-.016-.074-.016-.074s-.146-.145-.322-.315c-.177-.17-.427-.383-.427-.383l-4.853.772.87 5.487 2.194-.348-.365-2.303c1.48 1.359 2.116 3.198 2.116 5.494zM7.21 11.518a.777.777 0 0 1 .165-.444.563.563 0 0 1 .411-.158c.172 0 .309.065.391.143.09.086.151.223.151.387a.572.572 0 0 1-.171.43c-.151.129-.398.136-.46.136h-.062v.76h.083c.157 0 .397.014.562.15.11.093.199.258.199.458 0 .194-.076.38-.185.487a.661.661 0 0 1-.46.165.695.695 0 0 1-.507-.193.934.934 0 0 1-.22-.537H6.051c.048.48.247.902.508 1.182.404.422.891.494 1.337.494.37 0 .816-.043 1.207-.416.322-.308.46-.723.46-1.089 0-.257-.076-.558-.213-.752a1.128 1.128 0 0 0-.521-.386.861.861 0 0 0 .342-.301c.144-.208.186-.416.186-.652 0-.466-.158-.781-.35-.974-.233-.244-.638-.423-1.2-.423-.377 0-.823.086-1.159.451-.24.258-.411.68-.453 1.082H7.21zm10.841.96c0-.824-.212-1.555-.658-2.006-.267-.272-.665-.494-1.227-.494-.549 0-.94.215-1.214.494-.446.451-.658 1.182-.658 2.006 0 .816.212 1.54.658 1.998.274.28.665.495 1.214.495.562 0 .96-.222 1.227-.495.446-.458.658-1.182.658-1.998zm-1.878-1.555c.178 0 .301.058.425.18.336.343.384 1.03.384 1.368 0 .372-.062 1.045-.384 1.375a.556.556 0 0 1-.425.18.556.556 0 0 1-.426-.18c-.322-.33-.384-1.003-.384-1.375 0-.337.048-1.025.384-1.369a.556.556 0 0 1 .426-.179zm-4.197-.945-1.05 1.44c-.39.537-.733 1.074-.733 1.833 0 .423.096.824.398 1.16.452.517 1.063.56 1.481.56.405 0 .987-.065 1.406-.538.295-.336.432-.823.432-1.282 0-.58-.233-.924-.398-1.103-.199-.215-.555-.458-1.131-.458-.2 0-.343.028-.48.078l1.206-1.568-1.131-.122zm.062 4.09a.782.782 0 0 1-.556-.222.787.787 0 0 1-.233-.595c0-.33.144-.523.233-.608.158-.158.35-.208.556-.208.178 0 .377.043.548.2a.77.77 0 0 1 .24.588c0 .308-.116.508-.24.63a.771.771 0 0 1-.548.215z"/></svg><view id=".product-afterpay-logo" viewBox="0 20 83 19"/><svg viewBox="-2 -2 83 19" width="83" height="19" y="20" xmlns="http://www.w3.org/2000/svg"><path d="m74.784 3.42-2.148-1.237L70.488.887a2.168 2.168 0 0 0-3.242 1.884v.263c0 .154.076.298.203.385l1.013.568a.405.405 0 0 0 .568-.162.385.385 0 0 0 0-.203v-.648a.426.426 0 0 1 .405-.446h.243l2.026 1.155 2.027 1.135c.205.13.268.4.141.607l-.141.142-2.027 1.135-2.026 1.155a.426.426 0 0 1-.588-.142.486.486 0 0 1 0-.243v-.324a2.168 2.168 0 0 0-3.242-1.885L63.66 6.52l-2.148 1.236a2.188 2.188 0 0 0-.81 2.958c.186.343.467.624.81.81l2.148 1.237 2.188 1.236a2.168 2.168 0 0 0 3.242-1.885v-.263a.466.466 0 0 0-.202-.385l-1.013-.588a.405.405 0 0 0-.568.162.466.466 0 0 0 0 .223v.649a.426.426 0 0 1-.405.445.547.547 0 0 1-.243 0L64.632 11.2l-2.026-1.134a.446.446 0 0 1-.223-.568l.142-.141 2.026-1.135 2.027-1.155a.426.426 0 0 1 .587.142.5.5 0 0 1 0 .243v.324a2.168 2.168 0 0 0 3.242 1.884l2.189-1.256 2.148-1.236a2.148 2.148 0 0 0 .689-2.979 2.026 2.026 0 0 0-.649-.77zm-14.144.364L55.596 14.2H53.57l1.884-3.89-2.958-6.525h2.148l1.904 4.357 2.027-4.357zM10.206 7.472A2.026 2.026 0 1 0 8.179 9.6c1.12 0 2.027-.908 2.027-2.027v-.101m0 3.708v-.972a3.02 3.02 0 0 1-2.35 1.094 3.627 3.627 0 0 1-3.547-3.708v-.122a3.688 3.688 0 0 1 3.546-3.83 2.979 2.979 0 0 1 2.31 1.074v-.932h1.803v7.396h-1.762zm10.678-1.682c-.648 0-.81-.243-.81-.85V5.445h1.155v-1.6h-1.155V1.98H18.21v1.803h-2.432v-.75c0-.607.243-.85.892-.85h.405V.743h-.872c-1.54 0-2.269.507-2.269 2.027v.993h-1.033v1.682h1.033v5.795h1.844V5.446h2.432v3.627c0 1.52.567 2.168 2.026 2.168h1.013V9.498h-.365zm6.687-2.695a1.763 1.763 0 0 0-1.844-1.52 1.803 1.803 0 0 0-1.864 1.52h3.708zm-3.688 1.155a1.844 1.844 0 0 0 1.905 1.723 2.026 2.026 0 0 0 1.743-.953h1.904a3.627 3.627 0 0 1-3.688 2.574 3.647 3.647 0 0 1-3.89-3.384v-.446a3.83 3.83 0 0 1 7.66 0c.02.155.02.311 0 .466l-5.634.02zm17.548-.486a2.026 2.026 0 1 0 0 .101v-.101m-5.856 6.727V3.784h1.803v.953a3.02 3.02 0 0 1 2.351-1.095 3.628 3.628 0 0 1 3.566 3.688v.142a3.688 3.688 0 0 1-3.546 3.83 2.918 2.918 0 0 1-2.249-.993v3.89h-1.925zM49.86 7.472A2.026 2.026 0 1 0 47.734 9.6h.101c1.12 0 2.027-.908 2.027-2.027v-.101m0 3.708v-.972a2.958 2.958 0 0 1-2.33 1.094 3.627 3.627 0 0 1-3.567-3.688v-.142a3.688 3.688 0 0 1 3.546-3.83 2.938 2.938 0 0 1 2.29 1.074v-.932h1.823v7.396h-1.762zm-17.57-6.666a1.843 1.843 0 0 1 1.601-.872c.273-.007.543.049.79.162V5.71a2.33 2.33 0 0 0-1.317-.344 1.297 1.297 0 0 0-1.013 1.438v4.377H30.47V3.784h1.823v.73z"/></svg><view id=".product-arrowup" viewBox="242 132 19 24"/><svg width="19" height="24" viewBox="-2 -2 19 24" x="242" y="132" xmlns="http://www.w3.org/2000/svg"><path fill="#2D2D2D" fill-rule="evenodd" d="M6 3.9 1.414 8.484 0 7.071 7.071 0l1.414 1.414 5.657 5.657-1.414 1.414L8 3.757V20H6V3.9z"/></svg><view id=".product-arvato-logo" viewBox="97 22 72 18"/><svg width="72" height="18" viewBox="-2 -2 72 18" x="97" y="22" xmlns="http://www.w3.org/2000/svg"><g fill="#000" fill-rule="nonzero"><path d="M4.65.09a3.966 3.966 0 0 0-1.558 0C1.218.472.003 2.017.003 4.02v6.342a1.32 1.32 0 0 0 .098.575.62.62 0 0 0 .908.217c.233-.153.331-.409.331-.817V7.721H6.38v2.629c0 .204.037.395.135.574.11.204.319.345.54.332a.631.631 0 0 0 .368-.115c.27-.179.306-.498.306-.817V4.007C7.742 2.017 6.527.485 4.651.09ZM1.365 6.406V4.033c0-1.021.343-1.736 1.104-2.259a2.444 2.444 0 0 1 1.41-.447 2.364 2.364 0 0 1 1.398.447c.748.51 1.116 1.25 1.116 2.259v2.386l-5.028-.013ZM21.773 7.542c-.11 0-.22.026-.319.09-.209.102-.343.319-.393.638l-.06.331-.013.09c-.196.893-.859 1.455-1.73 1.455-.11 0-.208-.013-.318-.026-1.043-.166-1.534-.906-1.534-2.323V7.62h1.987c.246 0 .871 0 .871-.664a.583.583 0 0 0-.515-.612c-.135-.013-.27-.026-.417-.013h-1.938V3.459a1.32 1.32 0 0 0-.098-.575.62.62 0 0 0-.908-.217c-.27.192-.306.498-.306.817V7.62c0 2.322.81 3.484 2.612 3.79.209.038.417.064.638.064 1.398.025 2.637-.957 2.98-2.374.025-.115.05-.217.062-.332.073-.42.061-.663-.05-.88-.11-.217-.318-.358-.551-.345ZM27.562 2.642c-.38 0-.76.05-1.128.14-2.27.536-3.704 2.884-3.19 5.258.037.166.087.332.136.485a4.228 4.228 0 0 0 4.06 2.973 4.53 4.53 0 0 0 1.017-.115 4.63 4.63 0 0 0 1.497-.65 3.73 3.73 0 0 0 .785-.69c.233-.28.368-.51.343-.778-.037-.332-.294-.574-.613-.574-.037 0-.086 0-.123.013h-.024a.87.87 0 0 0-.417.242l-.013.013-.11.14-.184.179a2.862 2.862 0 0 1-2.134.919c-1.227 0-2.33-.792-2.748-1.991a4.334 4.334 0 0 1-.11-.409h6.39l.11-.012.221-.013a.609.609 0 0 0 .479-.255c.184-.281.171-.74-.062-1.608-.54-1.94-2.244-3.28-4.182-3.267Zm-2.993 3.943c.025-.153.062-.306.11-.46.369-1.301 1.534-2.194 2.834-2.181.294 0 .589.038.87.127 1.019.306 1.804 1.161 2.049 2.246.025.09.05.192.061.28l-5.924-.012ZM39.067 4.926l-.025-.09c-.49-1.403-1.607-2.245-2.993-2.245h-.036c-.221 0-.454.025-.675.064-1.116.255-2.44 1.097-2.44 3.624v4.07c0 .205.036.396.134.575.11.204.32.345.54.332a.631.631 0 0 0 .368-.115c.257-.179.27-.46.27-.817V6.292c0-1.379.441-2.08 1.422-2.285.135-.025.27-.05.405-.05.515 0 1.006.229 1.337.637.172.205.294.434.368.69.135.714.22.931.307 1.059l.012.012.012.013c.135.153.32.23.503.23.11 0 .22-.026.319-.077.417-.23.368-.79.282-1.276-.037-.102-.074-.217-.11-.319ZM44.696 0h-.049c-2.134.026-3.569 1.646-3.569 4.02v6.342c0 .205.037.396.135.575a.631.631 0 0 0 .92.217c.282-.192.319-.524.319-.817V7.402h2.158c1.963 0 3.312-1.06 3.668-2.923a3.807 3.807 0 0 0-.712-3.088 3.587 3.587 0 0 0-2.87-1.39Zm2.27 3.727c-.025 1.378-1.006 2.335-2.392 2.335H42.44V3.88c0-.957.147-1.417.576-1.889a2.158 2.158 0 0 1 1.631-.69h.062c1.349.04 2.28 1.035 2.256 2.426ZM57.268 5.654c-.49-1.8-2.159-3.063-4.035-3.063-.442 0-.883.064-1.3.204-1.497.447-2.637 1.723-2.968 3.318-.466 2.386.821 4.632 3.005 5.207.392.102.797.165 1.202.165 1.201 0 2.28-.497 2.955-1.301v.166c0 .268 0 .42.074.574a.631.631 0 0 0 .92.217c.282-.191.319-.523.319-.817V6.777l-.013-.154a5.157 5.157 0 0 0-.159-.97Zm-3.41 4.44c-.245.064-.49.09-.736.09-1.349 0-2.453-.893-2.82-2.284a2.768 2.768 0 0 1-.11-.651c-.111-1.43.747-2.757 2.06-3.19.306-.103.625-.154.956-.154 1.607 0 2.858 1.29 2.92 3.012.06 1.557-.847 2.833-2.27 3.178ZM65.069 3.165a.62.62 0 0 0-.908-.217c-.27.179-.294.51-.294.817v4.032c0 1.404-.7 2.285-1.816 2.285-.11 0-.22-.013-.33-.026-1.019-.14-1.57-.893-1.57-2.118V3.739a1.311 1.311 0 0 0-.087-.574.62.62 0 0 0-.907-.217c-.282.192-.319.523-.319.817V7.95c0 1.646.724 2.82 2.036 3.28.356.127.724.19 1.092.19a2.851 2.851 0 0 0 1.9-.688.475.475 0 0 1-.024.14v.025c-.123.907-.576 1.455-1.374 1.672a1.8 1.8 0 0 1-.515.077 1.632 1.632 0 0 1-1.3-.651l-.196-.268-.123-.14c-.061-.077-.122-.14-.184-.205l-.036-.038-.025-.013a.566.566 0 0 0-.307-.089.662.662 0 0 0-.637.549c-.05.293.073.561.294.906.172.255.38.472.613.663.54.422 1.202.651 1.877.638.306 0 .613-.05.92-.127 1.52-.408 2.367-1.685 2.367-3.586V3.739a1.524 1.524 0 0 0-.147-.574ZM15.04 4.926l-.025-.09c-.49-1.403-1.607-2.245-2.993-2.245h-.037c-.22 0-.453.025-.674.064-1.116.255-2.441 1.097-2.441 3.624v4.07c0 .205.037.396.135.575.11.204.319.345.54.332a.631.631 0 0 0 .368-.115c.27-.191.294-.498.294-.817l.012-.957V7.606h2.097c.638 0 .785-.332.81-.613a.659.659 0 0 0-.147-.472c-.135-.153-.356-.23-.65-.23h-2.134V6.28c0-1.378.441-2.08 1.422-2.284.135-.026.27-.051.405-.051.515 0 1.006.23 1.325.638.171.204.294.433.368.689.147.714.22.931.306 1.059l.013.013.012.012c.135.14.319.23.503.23.11 0 .22-.025.319-.076.417-.23.368-.792.282-1.277-.037-.089-.074-.204-.11-.306ZM67.681 2.182a1.037 1.037 0 0 1-1.508 0 1.141 1.141 0 0 1 0-1.57 1.037 1.037 0 0 1 1.508 0c.196.205.319.486.319.78 0 .293-.123.573-.319.79ZM66.271.715a.976.976 0 0 0-.27.676c0 .255.086.498.27.677.355.37.932.37 1.287 0a.979.979 0 0 0-.012-1.353.895.895 0 0 0-.638-.28.895.895 0 0 0-.637.28Zm.637.064c.11 0 .221.012.32.038a.303.303 0 0 1 .183.306.257.257 0 0 1-.11.243.691.691 0 0 1-.172.064.287.287 0 0 1 .196.114.322.322 0 0 1 .062.192v.178c0 .026 0 .039.012.064v.013h-.196V1.825a.308.308 0 0 0-.11-.28.689.689 0 0 0-.234-.039h-.16v.485h-.208V.779h.417Zm.221.191a.53.53 0 0 0-.245-.05h-.172v.446h.184c.061 0 .135 0 .196-.026.11-.05.148-.178.11-.28a.55.55 0 0 0-.073-.09Z"/></g></svg><view id=".product-asos-spinner-logo" viewBox="242 156 23 24"/><svg width="23" height="24" viewBox="-2 -2 23 24" x="242" y="156" xmlns="http://www.w3.org/2000/svg"><path d="M9.575 15.943c-2.806 0-5.376-2.208-5.376-6.164 0-3.104 1.926-6.112 5.394-6.112 1.502 0 5.31.514 5.31 6.112 0 5.612-3.976 6.164-5.328 6.164ZM19 .809a.32.32 0 0 0-.318-.318h-3.388a.32.32 0 0 0-.318.318v.889c0 .15-.1.201-.222.114C13.55.938 11.766 0 9.621 0A9.323 9.323 0 0 0 6.2.63c-1.067.419-2.08 1.056-3.01 1.895-1.059.963-1.864 2.061-2.393 3.263C.267 6.99 0 8.333 0 9.779c0 1.35.237 2.614.705 3.758.469 1.144 1.181 2.202 2.119 3.145.938.944 1.986 1.661 3.115 2.132 1.129.47 2.373.708 3.7.708 2.28 0 3.991-.97 5.112-1.854.124-.093.225-.043.225.112v.933a.32.32 0 0 0 .318.318h3.388a.32.32 0 0 0 .318-.318V.809Z" fill="#2D2D2D" fill-rule="evenodd"/></svg><view id=".product-asos-spinner-logo-white" viewBox="242 180 23 24"/><svg width="23" height="24" viewBox="-2 -2 23 24" x="242" y="180" xmlns="http://www.w3.org/2000/svg"><path d="M9.575 15.943c-2.806 0-5.376-2.208-5.376-6.164 0-3.104 1.926-6.112 5.394-6.112 1.502 0 5.31.514 5.31 6.112 0 5.612-3.976 6.164-5.328 6.164ZM19 .809a.32.32 0 0 0-.318-.318h-3.388a.32.32 0 0 0-.318.318v.889c0 .15-.1.201-.222.114C13.55.938 11.766 0 9.621 0A9.323 9.323 0 0 0 6.2.63c-1.067.419-2.08 1.056-3.01 1.895-1.059.963-1.864 2.061-2.393 3.263C.267 6.99 0 8.333 0 9.779c0 1.35.237 2.614.705 3.758.469 1.144 1.181 2.202 2.119 3.145.938.944 1.986 1.661 3.115 2.132 1.129.47 2.373.708 3.7.708 2.28 0 3.991-.97 5.112-1.854.124-.093.225-.043.225.112v.933a.32.32 0 0 0 .318.318h3.388a.32.32 0 0 0 .318-.318V.809Z" fill="#fff" fill-rule="evenodd"/></svg><view id=".product-chevron" viewBox="261 132 13 18"/><svg width="13" height="18" viewBox="-2 -2 13 18" x="261" y="132" xmlns="http://www.w3.org/2000/svg"><path fill="#2D2D2D" fill-rule="evenodd" d="M7.657 5.586 2-.071.586 1.343 6.243 7 .586 12.657 2 14.07 9.071 7 7.657 5.586z"/></svg><view id=".product-chevron-left-large" viewBox="176 176 22 35"/><svg width="22" height="35" viewBox="-2 -2 22 35" x="176" y="176" xmlns="http://www.w3.org/2000/svg"><path fill="#2D2D2D" fill-rule="evenodd" d="M4.078 15.664 17.621 2.121 15.5 0 .5 15l.164.164-.664.664 15 15 2.121-2.12L4.078 15.663z"/></svg><view id=".product-chevron-left-large-outlined" viewBox="144 80 25 39"/><svg width="25" height="39" viewBox="-2 -2 25 39" x="144" y="80" xmlns="http://www.w3.org/2000/svg"><g fill="none" fill-rule="evenodd"><path fill="#FFF" fill-rule="nonzero" d="m.586 17.556 16.971 16.971 3.415-3.415L7.417 17.557 20.972 4.001 17.557.586z"/><path fill="#2D2D2D" d="m17.557 33.113 2.001-2.001L6.001 17.556 19.558 4.001 17.557 2 2 17.556z"/></g></svg><view id=".product-chevron-left-outlined" viewBox="198 176 22 35"/><svg height="35" viewBox="-2 -2 32 45" width="22" x="198" y="176" xmlns="http://www.w3.org/2000/svg"><filter id="aja" height="103.1%" width="106.4%" x="-3.2%" y="-1.5%"><feOffset dy="2" in="SourceAlpha" result="shadowOffsetOuter1"/><feGaussianBlur in="shadowOffsetOuter1" result="shadowBlurOuter1" stdDeviation="2"/><feColorMatrix in="shadowBlurOuter1" result="shadowMatrixOuter1" values="0 0 0 0 0 0 0 0 0 0 0 0 0 0 0 0 0 0 0.5 0"/><feMerge><feMergeNode in="shadowMatrixOuter1"/><feMergeNode in="SourceGraphic"/></feMerge></filter><g fill="none" fill-rule="evenodd" filter="url(#aja)" transform="translate(-8 -371)"><path d="m11.586 389.556 16.971 16.971 3.415-3.415-13.555-13.555 13.555-13.556-3.415-3.415z" fill="#fff" fill-rule="nonzero"/><path d="m28.557 405.113 2.001-2.001-13.557-13.556 13.557-13.555L28.557 374 13 389.556z" fill="#2d2d2d"/></g></svg><view id=".product-chevron-right-large" viewBox="220 0 22 35"/><svg width="22" height="35" viewBox="-2 -2 22 35" x="220" xmlns="http://www.w3.org/2000/svg"><path fill="#2D2D2D" fill-rule="evenodd" d="M13.543 15.164 0 28.707l2.121 2.121 15-15-.164-.164.664-.664-15-15L.5 2.121l13.043 13.043z"/></svg><view id=".product-chevron-right-large-outlined" viewBox="188 128 25 39"/><svg width="25" height="39" viewBox="-2 -2 25 39" x="188" y="128" xmlns="http://www.w3.org/2000/svg"><g fill="none" fill-rule="evenodd"><path fill="#FFF" fill-rule="nonzero" d="M20.972 17.557 4.001.586.586 4 14.14 17.556.586 31.112 4 34.527z"/><path fill="#2D2D2D" d="M4.001 2 2 4.001l13.557 13.556L2 31.112l2.001 2.001 15.557-15.556z"/></g></svg><view id=".product-chevron-right-outlined" viewBox="220 35 22 35"/><svg height="35" viewBox="-2 -2 32 45" width="22" x="220" y="35" xmlns="http://www.w3.org/2000/svg"><filter id="ama" height="103.1%" width="106.4%" x="-3.2%" y="-1.5%"><feOffset dy="2" in="SourceAlpha" result="shadowOffsetOuter1"/><feGaussianBlur in="shadowOffsetOuter1" result="shadowBlurOuter1" stdDeviation="2"/><feColorMatrix in="shadowBlurOuter1" result="shadowMatrixOuter1" values="0 0 0 0 0 0 0 0 0 0 0 0 0 0 0 0 0 0 0.5 0"/><feMerge><feMergeNode in="shadowMatrixOuter1"/><feMergeNode in="SourceGraphic"/></feMerge></filter><g fill="none" fill-rule="evenodd" filter="url(#ama)" transform="translate(-339 -371)"><path d="m362.972 389.557-16.971-16.971-3.415 3.415 13.555 13.555-13.555 13.556 3.415 3.415z" fill="#fff" fill-rule="nonzero"/><path d="M346.001 374 344 376.001l13.557 13.556L344 403.112l2.001 2.001 15.557-15.556z" fill="#2d2d2d"/></g></svg><view id=".product-christmas-icon" viewBox="0 80 48 48"/><svg viewBox="-2 -2 48 48" width="48" height="48" y="80" xmlns="http://www.w3.org/2000/svg"><path fill="#282626" d="m13.683 18.407-5.241 1.665L8 18.063l3.28-1.042-2.85-1.645 1.012-1.752 2.823 1.63-.728-3.317 1.96-.622 1.169 5.326 6.322 3.65v-7.214l-4.045-3.69L18.464 8l2.525 2.305V7h2.022v3.305L25.537 8l1.519 1.386-4.045 3.691v7.213l6.322-3.65 1.17-5.325 1.96.622-.729 3.317 2.823-1.63 1.012 1.752-2.85 1.645 3.28 1.042-.44 2.009-5.242-1.665L24.095 22l6.222 3.593 5.241-1.665.441 2.009-3.28 1.042 2.85 1.645-1.012 1.752-2.823-1.63.728 3.317-1.96.622-1.169-5.326-6.322-3.65v7.214l4.045 3.69L25.536 36l-2.525-2.305V37H20.99v-3.305L18.463 36l-1.519-1.386 4.045-3.691V23.71l-6.322 3.65-1.17 5.325-1.96-.622.729-3.317-2.823 1.63-1.012-1.752 2.85-1.645-3.28-1.042.44-2.009 5.242 1.665L19.905 22l-6.222-3.593Z"/></svg><view id=".product-clearpay-logo" viewBox="0 39 83 19"/><svg viewBox="-2 -2 83 19" width="83" height="19" y="39" xmlns="http://www.w3.org/2000/svg"><path d="m61.495 3.924-5.114 10.561h-2.079l1.913-3.95-3.036-6.611h2.08l1.933 4.428 2.079-4.428zM42.036 7.666a2.079 2.079 0 1 0-4.158 0 2.079 2.079 0 0 0 4.158 0m-5.925 6.798V3.924h1.85v.977a2.931 2.931 0 0 1 2.35-1.102 3.68 3.68 0 0 1 3.617 3.867 3.742 3.742 0 0 1-3.659 3.888 2.89 2.89 0 0 1-2.266-1.019v3.95l-1.892-.02zM50.58 7.666a2.079 2.079 0 1 0-4.157 0 2.079 2.079 0 0 0 4.158 0m0 3.742v-.977a3.014 3.014 0 0 1-2.37 1.102 3.659 3.659 0 0 1-3.597-3.867 3.742 3.742 0 0 1 3.66-3.888A2.931 2.931 0 0 1 50.58 4.86v-.936h1.85v7.505l-1.85-.02zM32.785 4.672a1.975 1.975 0 0 1 2.432-.706v1.912a2.245 2.245 0 0 0-1.33-.29 1.31 1.31 0 0 0-1.04 1.434v4.449h-1.891V3.924h1.829v.748zm43.013-1.164-2.182-1.247L71.412.993a2.204 2.204 0 0 0-3.285 1.912v.27a.416.416 0 0 0 .208.375l1.04.603a.416.416 0 0 0 .623-.375v-.665a.437.437 0 0 1 .686-.395l2.08 1.164 2.078 1.165a.437.437 0 0 1 0 .748L72.763 6.96l-2.079 1.144a.437.437 0 0 1-.665-.375v-.332a2.204 2.204 0 0 0-3.306-1.809l-2.266 1.164-2.079 1.269a2.183 2.183 0 0 0 0 3.804l2.183 1.247 2.204 1.269a2.183 2.183 0 0 0 3.285-1.913v-.27a.416.416 0 0 0-.208-.375l-1.019-.602a.437.437 0 0 0-.644.374v.665a.437.437 0 0 1-.666.395l-2.079-1.164-2.078-1.164a.437.437 0 0 1 0-.749l2.078-1.164 2.08-1.143a.437.437 0 0 1 .665.374v.332a2.204 2.204 0 0 0 3.284 1.913l2.204-1.268 2.183-1.268a2.183 2.183 0 0 0-.042-3.805zM9.771 8.622a3.763 3.763 0 0 1-3.804 2.911 3.867 3.867 0 1 1 0-7.734 3.742 3.742 0 0 1 3.742 2.87H7.817a2.079 2.079 0 0 0-1.809-1.082 2.079 2.079 0 0 0 0 4.158A1.933 1.933 0 0 0 7.817 8.56l1.954.062zm.873 2.786V.848h1.83v10.56zm4.719-3.243a1.892 1.892 0 0 0 1.934 1.746 2.079 2.079 0 0 0 1.767-.977h1.933a3.68 3.68 0 0 1-3.742 2.599 3.68 3.68 0 0 1-3.846-3.867 3.784 3.784 0 0 1 3.888-3.888 3.742 3.742 0 0 1 3.846 3.888c.021.159.021.32 0 .478l-5.78.021zm3.763-1.164a1.788 1.788 0 0 0-1.85-1.56 1.85 1.85 0 0 0-1.892 1.56h3.742zm8.753 4.407v-.956a3.056 3.056 0 0 1-2.37 1.081 3.659 3.659 0 0 1-3.618-3.867 3.721 3.721 0 0 1 3.66-3.867 3 3 0 0 1 2.328 1.081v-.956h1.83v7.484h-1.83zm0-3.742a2.079 2.079 0 1 0-2.08 2.08 2.079 2.079 0 0 0 2.059-2.08h.02z"/></svg><view id=".product-close" viewBox="92 220 19 19"/><svg width="19" height="19" viewBox="-2 -2 19 19" x="92" y="220" xmlns="http://www.w3.org/2000/svg"><path fill="#2D2D2D" fill-rule="evenodd" d="M7.5 6.086 12.803.782l1.415 1.415L8.914 7.5l5.304 5.303-1.415 1.415L7.5 8.914l-5.303 5.304-1.415-1.415L6.086 7.5.782 2.197 2.197.782 7.5 6.086z"/></svg><view id=".product-closelarge" viewBox="242 0 34 34"/><svg width="34" height="34" viewBox="-2 -2 19 19" x="242" xmlns="http://www.w3.org/2000/svg"><path fill="#2D2D2D" fill-rule="evenodd" d="M7.5 6.086 12.803.782l1.415 1.415L8.914 7.5l5.304 5.303-1.415 1.415L7.5 8.914l-5.303 5.304-1.415-1.415L6.086 7.5.782 2.197 2.197.782 7.5 6.086z"/></svg><view id=".product-closesmall" viewBox="152 40 17 17"/><svg width="17" height="17" viewBox="-2 -2 14 14" x="152" y="40" xmlns="http://www.w3.org/2000/svg"><path fill="#2D2D2D" fill-rule="evenodd" d="M4.672 3.257 7.975-.046l1.414 1.414-3.303 3.304 3.303 3.303-1.414 1.414-3.303-3.303-3.304 3.303-1.414-1.414 3.303-3.303-3.303-3.304L1.368-.046l3.304 3.303z"/></svg><view id=".product-delivery-van" viewBox="242 88 28 20"/><svg width="28" height="20" viewBox="-2 -2 28 20" x="242" y="88" xmlns="http://www.w3.org/2000/svg"><defs><path d="M2.208 13.09H0V0h15.273L16 1.455h3.636c1.212 1.932 3.637 5.09 3.637 5.09v6.546h-2.266c-.12 1.202-.975 2.182-2.45 2.182s-2.384-1.036-2.448-2.182H7.247a2.546 2.546 0 0 1-5.04 0Zm4.821-1.45a2.546 2.546 0 0 0-4.603-.002m19.392-2.183v2.181h-.83c-.522-.948-1.319-1.427-2.39-1.436-1.135-.009-1.965.47-2.49 1.436H16V2.91h2.91l2.908 4.364v2.182Zm-.473-2.91.474.728h-4.364v-2.91h2.417l1.244 1.86.229.322Zm-19.89-5.09h13.09V11.636H1.455V1.455Zm17.09 10.181a1.09 1.09 0 1 1 0 2.182 1.09 1.09 0 0 1 0-2.182Zm-13.818 0a1.09 1.09 0 1 1 0 2.182 1.09 1.09 0 0 1 0-2.182Zm16.39-5.414-.801-1.131h-2.134v1.454h3.15l-.216-.323Z" id="ata"/></defs><use fill="#2D2D2D" xlink:href="#ata" transform="translate(.09 .727)" fill-rule="evenodd"/></svg><view id=".product-email-icon" viewBox="144 128 44 44"/><svg height="44" width="44" viewBox="-2 -2 44 44" x="144" y="128" xmlns="http://www.w3.org/2000/svg"><g fill="none" fill-rule="evenodd"><rect fill="#2d2d2d" height="40" rx="40" width="40"/><path d="m20 23-9-7v10h18V16zm9-9H11l9 6z" fill="#fff"/></g></svg><view id=".product-facebook-icon" viewBox="0 176 44 44"/><svg height="44" width="44" viewBox="-2 -2 44 44" y="176" xmlns="http://www.w3.org/2000/svg"><g fill="none" fill-rule="evenodd"><circle cx="20" cy="20" fill="#3c5a99" r="20"/><path d="M25 40V27h4l1-5h-5v-4c-.264-1.168.15-2.185 2-2h3v-5c-.47.14-2.084 0-4 0-3.882 0-6.566 2.402-7 7v4h-4v5h4v13z" fill="#fff"/></g></svg><view id=".product-heartempty" viewBox="220 94 22 20"/><svg width="22" height="20" viewBox="-2 -2 24 22" x="220" y="94" xmlns="http://www.w3.org/2000/svg"><path fill="#2D2D2D" fill-rule="evenodd" d="M10.461 15.213a22.594 22.594 0 0 0 3.125-2.217c2.665-2.269 4.195-4.763 4.192-7.368-.003-2.098-1.282-3.38-3.332-3.378-.748 0-1.995.683-2.868 1.58L10 5.45 8.418 3.834c-.882-.9-2.115-1.574-2.86-1.573-2.06.002-3.338 1.276-3.336 3.361.003 2.605 1.54 5.102 4.212 7.372a22.688 22.688 0 0 0 3.58 2.477c.144-.08.293-.166.447-.258zM9.996 2.25l.119-.12c1.07-1.051 2.782-2.129 4.33-2.13C17.69-.004 19.994 2.254 20 5.625 20.01 13.373 10.029 18 10.014 18 10 18 .01 13.371 0 5.625-.003 2.254 2.31.015 5.556.011 7.103.009 8.8 1.08 9.873 2.127l.123.123z"/></svg><view id=".product-heartfull" viewBox="220 114 22 20"/><svg width="22" height="20" viewBox="-2 -2 24 22" x="220" y="114" xmlns="http://www.w3.org/2000/svg"><defs><path id="axa" d="M21.996 15.25c-1.062-1.084-2.833-2.241-4.44-2.24-3.246.004-5.559 2.244-5.556 5.615C12.01 26.371 22 31 22.014 31c.015 0 9.997-4.627 9.986-12.375-.004-3.371-2.31-5.629-5.556-5.625-1.605.001-3.39 1.162-4.448 2.25z"/></defs><use fill="#2D2D2D" fill-rule="evenodd" transform="translate(-12 -13)" xlink:href="#axa"/></svg><view id=".product-icon-exclamation" viewBox="172 96 24 24"/><svg width="24" height="24" viewBox="-2 -2 24 24" x="172" y="96" xmlns="http://www.w3.org/2000/svg"><path d="M10 2a8 8 0 1 0 0 16 8 8 0 0 0 0-16Zm0-2c5.523 0 10 4.477 10 10s-4.477 10-10 10S0 15.523 0 10 4.477 0 10 0Zm1 13H9v2h2v-2Zm0-8H9v3l1 4 1-4V5Z" fill="#2D2D2D" fill-rule="evenodd"/></svg><view id=".product-icon-fit-analytics" viewBox="242 204 16 15.5"/><svg width="16" height="15.5" viewBox="-2 -2 28 27" x="242" y="204" xmlns="http://www.w3.org/2000/svg"><path fill="#FFF" fill-rule="evenodd" d="M21 21h-3v-2.5h-2V21h-3v-3h-2v3H8v-2.5H6V21H3v-3H1v5h22v-5h-2v3zM11 6.667V4h1a1 1 0 1 0-1-1H9a3 3 0 1 1 4 2.83v.837L24 14v2H0v-2l11-7.333zM12 9l-8 5h16l-8-5z"/></svg><view id=".product-information" viewBox="196 96 24 24"/><svg width="24" height="24" viewBox="-2 -2 24 24" x="196" y="96" xmlns="http://www.w3.org/2000/svg"><path fill="#2D2D2D" fill-rule="evenodd" d="M10 20C4.477 20 0 15.523 0 10S4.477 0 10 0s10 4.477 10 10-4.477 10-10 10zm0-18a8 8 0 1 0 0 16 8 8 0 0 0 0-16zM9 8.505h2v6H9v-6zM9 6c0-.548.452-1 1-1s1 .452 1 1-.452 1-1 1-1-.452-1-1z"/></svg><view id=".product-information-light" viewBox="0 220 24 24"/><svg width="24" height="24" viewBox="-2 -2 24 24" y="220" xmlns="http://www.w3.org/2000/svg"><path fill="#767676" fill-rule="evenodd" d="M10 20C4.477 20 0 15.523 0 10S4.477 0 10 0s10 4.477 10 10-4.477 10-10 10zm0-18a8 8 0 1 0 0 16 8 8 0 0 0 0-16zM9 8.505h2v6H9v-6zM9 6c0-.548.452-1 1-1s1 .452 1 1-.452 1-1 1-1-.452-1-1z"/></svg><view id=".product-ingredients-icon" viewBox="24 220 24 24"/><svg width="24" height="24" viewBox="-2 -2 24 24" x="24" y="220" xmlns="http://www.w3.org/2000/svg"><path d="M10 17.327a8.002 8.002 0 0 1-7.631-5.595c.442.235.938.447 1.477.637.684.24 1.435.446 2.246.6a19.74 19.74 0 0 0 1.74.249c.699.069 1.423.109 2.168.109.147 0 .29-.007.435-.01 2.883-.056 5.449-.657 7.196-1.585A8.002 8.002 0 0 1 10 17.327M8.963 6.357 4.965 9.79a3.257 3.257 0 0 0-.589.667c-1.417-.49-2.293-1.096-2.362-1.568l.001-.057h-.014L2 8.827c0-.871 2.943-2.26 6.963-2.47m5.126-1.922 1.573-2.221.059-.07a.503.503 0 0 1 .708.004l.711.71.059.07a.563.563 0 0 1-.13.786l-1.81 1.29-.456.326-.194.147a4.082 4.082 0 0 0-.521.506l-.572.667-4.001 4.667a19.206 19.206 0 0 1-2.918-.292l5.355-4.597 1.478-1.27.181-.165c.099-.097.181-.208.269-.314.069-.082.147-.157.209-.244M18 8.827c0 .016-.009.033-.011.049h-.001v.008c-.107.78-2.429 1.928-5.734 2.31l3.352-3.91c.023-.025.053-.043.076-.068C17.126 7.724 18 8.352 18 8.826m2 0c0-1.137-.947-2.174-2.496-2.966l.726-.517a2.56 2.56 0 0 0 .324-3.898l-.711-.711a2.504 2.504 0 0 0-3.814.324l-1.572 2.22a2.02 2.02 0 0 1-.33.362l-.847.728c-.42-.024-.845-.041-1.28-.041-5.522 0-10 2.015-10 4.5 0 .03.009.06.01.09-.005.136-.01.272-.01.41 0 5.523 4.478 10 10 10 5.523 0 10-4.477 10-10 0-.14-.003-.28-.009-.418.001-.028.009-.054.009-.082" fill="#2D2D2D" fill-rule="evenodd"/></svg><view id=".product-klarna-logo" viewBox="97 40 55 17"/><svg width="55" height="17" viewBox="-2 -2 55 17" x="97" y="40" xmlns="http://www.w3.org/2000/svg"><path fill="#000105" fill-rule="evenodd" d="M11.262 11.794h2.334V1.024h-2.334v10.77Zm23.763-3.931v3.93h2.228V7.057c0-1.733-1.378-2.912-3.175-2.912-.891 0-1.735.276-2.298 1.04v-.84h-2.221v7.45h2.248V7.879c0-1.133.76-1.688 1.674-1.688.98 0 1.544.586 1.544 1.672m-18.422.207c0-1.06.905-1.917 2.02-1.917 1.117 0 2.022.858 2.022 1.916 0 1.059-.905 1.917-2.021 1.917-1.116 0-2.021-.858-2.021-1.917v.001Zm4.05 3.248v.476h2.23v-7.45h-2.23v.477a3.93 3.93 0 1 0 0 6.497Zm7.867-4.806V4.345c-.907 0-1.74.387-2.187.97v-.97H24.05v7.449h2.288V8.316c0-1.174 1.272-1.805 2.155-1.805l.026.001m13.635 3.474c-1.116 0-2.02-.858-2.02-1.917 0-1.058.904-1.916 2.02-1.916 1.117 0 2.021.858 2.021 1.916 0 1.059-.904 1.917-2.02 1.917h-.001Zm2.029 1.808h2.23v-7.45h-2.23v.477a3.93 3.93 0 1 0 0 6.497v.476Zm5.998-1.243a1.4 1.4 0 1 0-2.8 0 1.4 1.4 0 0 0 2.8 0m-39.64 1.246-3.417-4.66a8.57 8.57 0 0 0 2.529-6.114h-2.42a6.187 6.187 0 0 1-2.5 4.993l-.959.718 3.714 5.064h3.052M1 11.797h2.479V1.022H1v10.775Z"/></svg><view id=".product-left-arrow-outlined" viewBox="48 80 48 48"/><svg width="48" height="48" viewBox="-2 -2 48 48" x="48" y="80" xmlns="http://www.w3.org/2000/svg"><g fill="none" fill-rule="evenodd"><path fill="#FFF" d="m19.482 14-.707.706-7.067 7.068-.708.708.708.706 7.06 7.061.709.707.706-.707 1.414-1.414.707-.707-.707-.707-2.94-2.94h14.779v-4h-14.78l2.947-2.946.707-.707-.707-.707-1.414-1.415z"/><path fill="#2D2D2D" d="M32.435 21.482H16.242l4.653-4.653-1.414-1.414-7.067 7.067 7.062 7.06 1.414-1.414-4.648-4.646h16.193z"/></g></svg><view id=".product-new-page" viewBox="220 134 22 22"/><svg width="22" height="22" viewBox="-2 -2 22 22" x="220" y="134" xmlns="http://www.w3.org/2000/svg"><path fill="#2D2D2D" fill-rule="evenodd" d="M14 12h2V2H6v2h8v8zm0 2v4H0V4h4V0h14v14h-4zM4 6H2v10h10V6H4z"/></svg><view id=".product-new-page-small" viewBox="258 204 14 14"/><svg width="14" height="14" viewBox="-2 -2 14 14" x="258" y="204" xmlns="http://www.w3.org/2000/svg"><path d="M7 3H1v6h6V3Zm1 4h1V1H3l-.001 1H8v5Zm0 3H0V2h2V0h8v8H8v2Z" fill="#2D2D2D" fill-rule="evenodd"/></svg><view id=".product-paypalpayin3-logo" viewBox="97 57 53 16"/><svg width="53" height="16" viewBox="-2 -2 53 16" x="97" y="57" xmlns="http://www.w3.org/2000/svg"><g fill="none" fill-rule="evenodd"><path d="M18.29 2.698h-2.707a.376.376 0 0 0-.372.318l-1.095 6.957a.226.226 0 0 0 .223.26h1.293a.376.376 0 0 0 .371-.318L16.3 8.04a.376.376 0 0 1 .37-.319h.858c1.783 0 2.812-.865 3.08-2.578.122-.75.006-1.339-.345-1.751-.384-.453-1.067-.693-1.973-.693Zm.312 2.54c-.148.974-.89.974-1.608.974h-.408l.286-1.818a.226.226 0 0 1 .223-.19h.187c.489 0 .95 0 1.188.279.142.166.186.414.132.756ZM26.38 5.207h-1.296c-.11 0-.206.081-.223.191l-.057.363-.09-.131c-.281-.408-.907-.545-1.532-.545-1.432 0-2.655 1.087-2.894 2.613-.123.76.053 1.488.483 1.995.395.467.96.661 1.633.661 1.154 0 1.794-.744 1.794-.744l-.058.361a.226.226 0 0 0 .223.262h1.167a.376.376 0 0 0 .372-.318l.7-4.447a.225.225 0 0 0-.222-.26Zm-1.806 2.529c-.126.742-.713 1.24-1.463 1.24-.376 0-.677-.12-.87-.35-.192-.228-.264-.552-.204-.913a1.452 1.452 0 0 1 1.453-1.25c.368 0 .667.122.864.354.198.233.276.56.22.919ZM33.284 5.207H31.98a.377.377 0 0 0-.311.166l-1.797 2.652-.761-2.549a.377.377 0 0 0-.361-.269h-1.28a.226.226 0 0 0-.214.3l1.434 4.22-1.349 1.908c-.106.15.001.357.184.357h1.301c.124 0 .24-.06.31-.162l4.332-6.268a.226.226 0 0 0-.185-.355" fill="#28356A"/><path d="M37.596 2.698h-2.707a.376.376 0 0 0-.371.318l-1.095 6.957a.226.226 0 0 0 .222.26h1.39c.128 0 .239-.094.259-.222l.31-1.972a.376.376 0 0 1 .372-.319h.856c1.784 0 2.812-.865 3.082-2.578.121-.75.004-1.339-.346-1.751-.384-.453-1.066-.693-1.972-.693Zm.312 2.54c-.148.974-.89.974-1.608.974h-.407l.286-1.818a.225.225 0 0 1 .223-.19h.187c.488 0 .95 0 1.188.279.142.166.185.414.131.756ZM45.686 5.207h-1.295a.225.225 0 0 0-.222.191l-.058.363-.09-.131c-.281-.408-.907-.545-1.531-.545-1.433 0-2.656 1.087-2.894 2.613-.123.76.052 1.488.483 1.995.395.467.96.661 1.632.661 1.154 0 1.794-.744 1.794-.744l-.058.361a.226.226 0 0 0 .224.262h1.167a.376.376 0 0 0 .371-.318l.701-4.447a.226.226 0 0 0-.224-.26ZM43.88 7.736c-.125.742-.713 1.24-1.463 1.24-.375 0-.677-.12-.87-.35-.192-.228-.264-.552-.204-.913a1.453 1.453 0 0 1 1.453-1.25c.368 0 .667.122.864.354.199.233.277.56.22.919ZM47.214 2.889l-1.11 7.084a.225.225 0 0 0 .222.26h1.117a.376.376 0 0 0 .371-.318L48.91 2.96a.226.226 0 0 0-.222-.261h-1.251a.226.226 0 0 0-.223.19" fill="#298FC2"/><path d="m2.876 11.585.207-1.317-.461-.011H.42L1.95.533a.125.125 0 0 1 .124-.106h3.713c1.232 0 2.083.257 2.527.764.208.238.34.487.405.76.067.288.068.631.002 1.05l-.004.03V3.3l.208.119c.175.093.314.2.421.322.178.203.294.462.342.768.05.316.034.691-.048 1.116a3.933 3.933 0 0 1-.456 1.262c-.191.321-.434.588-.723.794a2.927 2.927 0 0 1-.972.44c-.36.093-.768.14-1.216.14h-.29a.875.875 0 0 0-.564.209.877.877 0 0 0-.294.527l-.022.118-.366 2.323-.016.085c-.005.027-.012.04-.024.05a.06.06 0 0 1-.037.013H2.876" fill="#28356A"/><path d="M9.122 3.062a6.384 6.384 0 0 1-.038.218C8.594 5.8 6.919 6.67 4.78 6.67H3.691a.53.53 0 0 0-.523.449l-.715 4.55a.28.28 0 0 0 .275.322H4.66a.465.465 0 0 0 .459-.392l.019-.099.363-2.313.024-.127a.465.465 0 0 1 .459-.394h.289c1.871 0 3.337-.761 3.765-2.965.179-.92.086-1.69-.387-2.23a1.846 1.846 0 0 0-.53-.409" fill="#298FC2"/><path d="M8.61 2.857a3.835 3.835 0 0 0-.476-.106 6.042 6.042 0 0 0-.96-.07h-2.91a.46.46 0 0 0-.459.394l-.619 3.93-.018.114a.53.53 0 0 1 .523-.45h1.09c2.138 0 3.813-.87 4.303-3.389.015-.074.027-.147.038-.218a2.6 2.6 0 0 0-.512-.205" fill="#22284F"/><path d="M3.805 3.075a.463.463 0 0 1 .459-.393h2.91c.344 0 .666.022.96.07a4.378 4.378 0 0 1 .476.106 2.645 2.645 0 0 1 .513.204c.145-.93-.002-1.565-.504-2.139C8.065.291 7.066.021 5.787.021H2.075a.53.53 0 0 0-.525.45L.004 10.293a.32.32 0 0 0 .315.37H2.61l1.194-7.59" fill="#28356A"/></g></svg><view id=".product-paypalpayin4-logo" viewBox="0 58 75 22"/><svg width="75" height="22" viewBox="-2 -2 75 22" y="58" xmlns="http://www.w3.org/2000/svg"><g fill="none" fill-rule="evenodd"><path d="M62 .818a8.182 8.182 0 1 1 0 16.364A8.182 8.182 0 0 1 62 .818Zm0 1.637a6.545 6.545 0 1 0 0 13.09 6.545 6.545 0 0 0 0-13.09Zm.818 5.322v4.909h-1.636v-4.91h1.636ZM62 4.909c.448 0 .818.37.818.818 0 .449-.37.818-.818.818a.823.823 0 0 1-.818-.818c0-.448.37-.818.818-.818Z" fill="#2D2D2D"/><path d="M18.29 5.698h-2.707a.376.376 0 0 0-.372.318l-1.095 6.957a.226.226 0 0 0 .223.26h1.293a.376.376 0 0 0 .371-.318l.296-1.876a.376.376 0 0 1 .37-.319h.858c1.783 0 2.812-.865 3.08-2.578.122-.75.006-1.339-.345-1.751-.384-.453-1.067-.693-1.973-.693Zm.312 2.54c-.148.974-.89.974-1.608.974h-.408l.286-1.818a.226.226 0 0 1 .223-.19h.187c.489 0 .95 0 1.188.279.142.166.186.414.132.756ZM26.38 8.207h-1.296c-.11 0-.206.081-.223.191l-.057.363-.09-.131c-.281-.408-.907-.545-1.532-.545-1.432 0-2.655 1.087-2.894 2.613-.123.76.053 1.488.483 1.995.395.467.96.661 1.633.661 1.154 0 1.794-.744 1.794-.744l-.058.361a.226.226 0 0 0 .223.262h1.167a.376.376 0 0 0 .372-.318l.7-4.447a.225.225 0 0 0-.222-.26Zm-1.806 2.529c-.126.742-.713 1.24-1.463 1.24-.376 0-.677-.12-.87-.35-.192-.228-.264-.552-.204-.913a1.452 1.452 0 0 1 1.453-1.25c.368 0 .667.122.864.354.198.233.276.56.22.919ZM33.284 8.207H31.98a.377.377 0 0 0-.311.166l-1.797 2.652-.761-2.549a.377.377 0 0 0-.361-.269h-1.28a.226.226 0 0 0-.214.3l1.434 4.22-1.349 1.908c-.106.15.001.357.184.357h1.301c.124 0 .24-.06.31-.162l4.332-6.268a.226.226 0 0 0-.185-.355" fill="#28356A"/><path d="M37.596 5.698h-2.707a.376.376 0 0 0-.371.318l-1.095 6.957a.226.226 0 0 0 .222.26h1.39c.128 0 .239-.094.259-.222l.31-1.972a.376.376 0 0 1 .372-.319h.856c1.784 0 2.812-.865 3.082-2.578.121-.75.004-1.339-.346-1.751-.384-.453-1.066-.693-1.972-.693Zm.312 2.54c-.148.974-.89.974-1.608.974h-.407l.286-1.818a.225.225 0 0 1 .223-.19h.187c.488 0 .95 0 1.188.279.142.166.185.414.131.756ZM45.686 8.207h-1.295a.225.225 0 0 0-.222.191l-.058.363-.09-.131c-.281-.408-.907-.545-1.531-.545-1.433 0-2.656 1.087-2.894 2.613-.123.76.052 1.488.483 1.995.395.467.96.661 1.632.661 1.154 0 1.794-.744 1.794-.744l-.058.361a.226.226 0 0 0 .224.262h1.167a.376.376 0 0 0 .371-.318l.701-4.447a.226.226 0 0 0-.224-.26Zm-1.806 2.529c-.125.742-.713 1.24-1.463 1.24-.375 0-.677-.12-.87-.35-.192-.228-.264-.552-.204-.913a1.453 1.453 0 0 1 1.453-1.25c.368 0 .667.122.864.354.199.233.277.56.22.919ZM47.214 5.889l-1.11 7.084a.225.225 0 0 0 .222.26h1.117a.376.376 0 0 0 .371-.318L48.91 5.96a.226.226 0 0 0-.222-.261h-1.251a.226.226 0 0 0-.223.19" fill="#298FC2"/><path d="m2.876 14.585.207-1.317-.461-.011H.42l1.53-9.724a.125.125 0 0 1 .124-.106h3.713c1.232 0 2.083.257 2.527.764.208.238.34.487.405.76.067.288.068.631.002 1.05l-.004.03V6.3l.208.119c.175.093.314.2.421.322.178.203.294.462.342.768.05.316.034.691-.048 1.116a3.933 3.933 0 0 1-.456 1.262c-.191.321-.434.588-.723.794a2.927 2.927 0 0 1-.972.44c-.36.093-.768.14-1.216.14h-.29a.875.875 0 0 0-.564.209.877.877 0 0 0-.294.527l-.022.118-.366 2.323-.016.085c-.005.027-.012.04-.024.05a.06.06 0 0 1-.037.013H2.876" fill="#28356A"/><path d="M9.122 6.062a6.384 6.384 0 0 1-.038.218C8.594 8.8 6.919 9.67 4.78 9.67H3.691a.53.53 0 0 0-.523.449l-.715 4.55a.28.28 0 0 0 .275.322H4.66a.465.465 0 0 0 .459-.392l.019-.099.363-2.313.024-.127a.465.465 0 0 1 .459-.394h.289c1.871 0 3.337-.761 3.765-2.965.179-.92.086-1.69-.387-2.23a1.846 1.846 0 0 0-.53-.409" fill="#298FC2"/><path d="M8.61 5.857a3.835 3.835 0 0 0-.476-.106 6.042 6.042 0 0 0-.96-.07h-2.91a.46.46 0 0 0-.459.394l-.619 3.93-.018.114a.53.53 0 0 1 .523-.45h1.09c2.138 0 3.813-.87 4.303-3.389.015-.074.027-.147.038-.218a2.6 2.6 0 0 0-.512-.205" fill="#22284F"/><path d="M3.805 6.075a.463.463 0 0 1 .459-.393h2.91c.344 0 .666.022.96.07a4.378 4.378 0 0 1 .476.106 2.645 2.645 0 0 1 .513.204c.145-.93-.002-1.565-.504-2.139-.554-.632-1.553-.902-2.832-.902H2.075a.53.53 0 0 0-.525.45L.004 13.293a.32.32 0 0 0 .315.37H2.61l1.194-7.59" fill="#28356A"/></g></svg><view id=".product-paypalpaylater-logo" viewBox="97 0 75 22"/><svg width="75" height="22" viewBox="-2 -2 75 22" x="97" xmlns="http://www.w3.org/2000/svg"><g fill="none" fill-rule="evenodd"><path d="M62 .818a8.182 8.182 0 1 1 0 16.364A8.182 8.182 0 0 1 62 .818Zm0 1.637a6.545 6.545 0 1 0 0 13.09 6.545 6.545 0 0 0 0-13.09Zm.818 5.322v4.909h-1.636v-4.91h1.636ZM62 4.909c.448 0 .818.37.818.818 0 .449-.37.818-.818.818a.823.823 0 0 1-.818-.818c0-.448.37-.818.818-.818Z" fill="#2D2D2D"/><path d="M18.29 5.698h-2.707a.376.376 0 0 0-.372.318l-1.095 6.957a.226.226 0 0 0 .223.26h1.293a.376.376 0 0 0 .371-.318l.296-1.876a.376.376 0 0 1 .37-.319h.858c1.783 0 2.812-.865 3.08-2.578.122-.75.006-1.339-.345-1.751-.384-.453-1.067-.693-1.973-.693Zm.312 2.54c-.148.974-.89.974-1.608.974h-.408l.286-1.818a.226.226 0 0 1 .223-.19h.187c.489 0 .95 0 1.188.279.142.166.186.414.132.756ZM26.38 8.207h-1.296c-.11 0-.206.081-.223.191l-.057.363-.09-.131c-.281-.408-.907-.545-1.532-.545-1.432 0-2.655 1.087-2.894 2.613-.123.76.053 1.488.483 1.995.395.467.96.661 1.633.661 1.154 0 1.794-.744 1.794-.744l-.058.361a.226.226 0 0 0 .223.262h1.167a.376.376 0 0 0 .372-.318l.7-4.447a.225.225 0 0 0-.222-.26Zm-1.806 2.529c-.126.742-.713 1.24-1.463 1.24-.376 0-.677-.12-.87-.35-.192-.228-.264-.552-.204-.913a1.452 1.452 0 0 1 1.453-1.25c.368 0 .667.122.864.354.198.233.276.56.22.919ZM33.284 8.207H31.98a.377.377 0 0 0-.311.166l-1.797 2.652-.761-2.549a.377.377 0 0 0-.361-.269h-1.28a.226.226 0 0 0-.214.3l1.434 4.22-1.349 1.908c-.106.15.001.357.184.357h1.301c.124 0 .24-.06.31-.162l4.332-6.268a.226.226 0 0 0-.185-.355" fill="#28356A"/><path d="M37.596 5.698h-2.707a.376.376 0 0 0-.371.318l-1.095 6.957a.226.226 0 0 0 .222.26h1.39c.128 0 .239-.094.259-.222l.31-1.972a.376.376 0 0 1 .372-.319h.856c1.784 0 2.812-.865 3.082-2.578.121-.75.004-1.339-.346-1.751-.384-.453-1.066-.693-1.972-.693Zm.312 2.54c-.148.974-.89.974-1.608.974h-.407l.286-1.818a.225.225 0 0 1 .223-.19h.187c.488 0 .95 0 1.188.279.142.166.185.414.131.756ZM45.686 8.207h-1.295a.225.225 0 0 0-.222.191l-.058.363-.09-.131c-.281-.408-.907-.545-1.531-.545-1.433 0-2.656 1.087-2.894 2.613-.123.76.052 1.488.483 1.995.395.467.96.661 1.632.661 1.154 0 1.794-.744 1.794-.744l-.058.361a.226.226 0 0 0 .224.262h1.167a.376.376 0 0 0 .371-.318l.701-4.447a.226.226 0 0 0-.224-.26Zm-1.806 2.529c-.125.742-.713 1.24-1.463 1.24-.375 0-.677-.12-.87-.35-.192-.228-.264-.552-.204-.913a1.453 1.453 0 0 1 1.453-1.25c.368 0 .667.122.864.354.199.233.277.56.22.919ZM47.214 5.889l-1.11 7.084a.225.225 0 0 0 .222.26h1.117a.376.376 0 0 0 .371-.318L48.91 5.96a.226.226 0 0 0-.222-.261h-1.251a.226.226 0 0 0-.223.19" fill="#298FC2"/><path d="m2.876 14.585.207-1.317-.461-.011H.42l1.53-9.724a.125.125 0 0 1 .124-.106h3.713c1.232 0 2.083.257 2.527.764.208.238.34.487.405.76.067.288.068.631.002 1.05l-.004.03V6.3l.208.119c.175.093.314.2.421.322.178.203.294.462.342.768.05.316.034.691-.048 1.116a3.933 3.933 0 0 1-.456 1.262c-.191.321-.434.588-.723.794a2.927 2.927 0 0 1-.972.44c-.36.093-.768.14-1.216.14h-.29a.875.875 0 0 0-.564.209.877.877 0 0 0-.294.527l-.022.118-.366 2.323-.016.085c-.005.027-.012.04-.024.05a.06.06 0 0 1-.037.013H2.876" fill="#28356A"/><path d="M9.122 6.062a6.384 6.384 0 0 1-.038.218C8.594 8.8 6.919 9.67 4.78 9.67H3.691a.53.53 0 0 0-.523.449l-.715 4.55a.28.28 0 0 0 .275.322H4.66a.465.465 0 0 0 .459-.392l.019-.099.363-2.313.024-.127a.465.465 0 0 1 .459-.394h.289c1.871 0 3.337-.761 3.765-2.965.179-.92.086-1.69-.387-2.23a1.846 1.846 0 0 0-.53-.409" fill="#298FC2"/><path d="M8.61 5.857a3.835 3.835 0 0 0-.476-.106 6.042 6.042 0 0 0-.96-.07h-2.91a.46.46 0 0 0-.459.394l-.619 3.93-.018.114a.53.53 0 0 1 .523-.45h1.09c2.138 0 3.813-.87 4.303-3.389.015-.074.027-.147.038-.218a2.6 2.6 0 0 0-.512-.205" fill="#22284F"/><path d="M3.805 6.075a.463.463 0 0 1 .459-.393h2.91c.344 0 .666.022.96.07a4.378 4.378 0 0 1 .476.106 2.645 2.645 0 0 1 .513.204c.145-.93-.002-1.565-.504-2.139-.554-.632-1.553-.902-2.832-.902H2.075a.53.53 0 0 0-.525.45L.004 13.293a.32.32 0 0 0 .315.37H2.61l1.194-7.59" fill="#28356A"/></g></svg><view id=".product-pinterest-icon" viewBox="44 176 44 44"/><svg height="44" width="44" viewBox="-2 -2 44 44" x="44" y="176" xmlns="http://www.w3.org/2000/svg"><g fill="none" fill-rule="evenodd"><circle cx="20" cy="20" fill="#cf1b2c" r="20"/><path d="M21.014 10C15.02 10 12 14.108 12 17.535c0 2.074.82 3.92 2.582 4.607.29.114.548.006.632-.3.058-.21.196-.744.257-.967.085-.303.053-.41-.18-.674-.508-.572-.833-1.314-.833-2.366 0-3.048 2.384-5.776 6.21-5.776 3.387 0 5.247 1.978 5.247 4.621 0 3.479-1.609 6.416-3.998 6.416-1.32 0-2.306-1.044-1.99-2.325.379-1.528 1.113-3.177 1.113-4.281 0-.987-.557-1.81-1.703-1.81-1.35 0-2.43 1.335-2.43 3.123 0 1.138.4 1.908.4 1.908l-1.622 6.573c-.482 1.95-.073 4.342-.039 4.583.02.144.214.177.302.07.124-.156 1.731-2.053 2.277-3.949.155-.536.888-3.314.888-3.314.438.8 1.719 1.503 3.08 1.503 4.055 0 6.807-3.534 6.807-8.266C29 13.333 25.83 10 21.014 10z" fill="#fff"/></g></svg><view id=".product-play" viewBox="220 156 19 20"/><svg width="19" height="20" viewBox="-2 -2 19 20" x="220" y="156" xmlns="http://www.w3.org/2000/svg"><path fill="#2D2D2D" fill-rule="evenodd" d="m2 12.655 8.75-4.7L2 3.321v9.333zM0 0l15 7.941L0 16V0z"/></svg><view id=".product-play-filled" viewBox="220 176 19 20"/><svg width="19" height="20" viewBox="-2 -2 19 20" x="220" y="176" xmlns="http://www.w3.org/2000/svg"><path fill="#2D2D2D" fill-rule="evenodd" d="m0 0 15 7.941L0 16z"/></svg><view id=".product-rating-comfort" viewBox="96 80 48 48"/><svg width="48" height="48" viewBox="-2 -2 48 48" x="96" y="80" xmlns="http://www.w3.org/2000/svg"><g fill="none" fill-rule="evenodd"><path d="M13.26 27.653c1.057-1.443 2.288-2.753 3.624-3.937a32.74 32.74 0 0 1 4.26-3.234c1.505-.956 3.08-1.809 4.74-2.471a.178.178 0 0 1 .23.094.172.172 0 0 1-.059.204c-1.43 1.03-2.832 2.058-4.183 3.143a65.25 65.25 0 0 0-3.909 3.38c-2.478 2.377-4.77 4.88-6.605 7.783l-.003.006a.263.263 0 0 1-.357.082.25.25 0 0 1-.116-.275c.436-1.736 1.34-3.325 2.377-4.775Z" fill="#2D2D2D"/><path d="M30.505 13.424c.436.538.847 6.562-5.218 11.787-4.043 3.482-7.975 4.39-11.795 2.723-1.836-4.11-.701-7.465 3.405-10.068 6.16-3.904 13.173-4.98 13.608-4.442Z" stroke="#2D2D2D" stroke-width="2"/></g></svg><view id=".product-rating-fallback" viewBox="172 0 48 48"/><svg width="48" height="48" viewBox="-2 -2 48 48" x="172" xmlns="http://www.w3.org/2000/svg"><path d="M23.877 14.722c.094.291.156.568.226.982l.131.802c.1.6.155.837.284 1.274.257.871 1.251 2.034 1.647 2.222L32 20v11h-5.744l.001.028H15.869l-.287-.262c-.616-.563-1.028-1.196-1.213-1.885l-.048-.206-.035-.023c-.59-.454-.906-1.233-1-2.076l-.002-.027c-1.28-1.25-1.726-4.42-.959-5.904l.084-.147c.76-1.215 2.453-2.361 3.677-2.463l.171-.007 1.923-.001v-.017c-.055-2.36.733-4.022 2.42-4.817l.198-.088.21-.061c1.42-.251 2.412.54 2.87 1.678Zm-2.424.28-.02.01c-.982.483-1.411 1.618-1.213 3.628l.03.268.136 1.12h-4.129c-.478 0-1.696.801-2.152 1.53-.391.626.007 3.113.486 3.512l.063.04.603.261v.657c0 .472.166.935.219 1.015l.011.012.77.182v.791c0 .33.123.65.4.978l.019.021h9.323v-7.02c-1.342-.219-2.927-2.062-3.399-3.66l-.076-.267a9.16 9.16 0 0 1-.2-.878l-.232-1.384a4.053 4.053 0 0 0-.094-.415c-.09-.225-.231-.37-.443-.397l-.102-.004ZM30 22h-2v7h2v-7Z" fill="#2D2D2D" fill-rule="evenodd"/></svg><view id=".product-rating-fit" viewBox="172 48 48 48"/><svg width="48" height="48" viewBox="-2 -2 48 48" x="172" y="48" xmlns="http://www.w3.org/2000/svg"><path d="M11.334 16.307c1.007-2.275 6.667-3.626 10.848-3.242 2.91.264 5.092 1.346 5.694 2.823.15.368.19.74.123 1.089v3.215C29.884 19.425 31 18.344 31 17.328v-1.394h2v10.197c0 1.507-1.004 2.922-2.827 3.983-2.057 1.2-5.035 1.886-8.172 1.886-6.169 0-11-2.578-11-5.869v-7.825c-.006-.432-.004-1.238.333-1.999ZM13 20.735v5.396c0 .923.92 1.899 2.5 2.645v-4.601h1l-.001 5.01c.603.213 1.273.395 2 .536v-2.612h1v2.774c.633.084 1.302.137 2 .154v-4.884h1v4.884c.684-.017 1.354-.07 2-.155v-2.773h1l.001 2.61c.71-.138 1.381-.317 2-.536l-.001-5.008h1l.001 4.6c.227-.108.444-.222.65-.341.69-.402 1.85-1.237 1.85-2.303v-5.387c-1.976 1.494-5.24 2.453-9 2.453-3.766 0-7.026-.964-9-2.462ZM26 18.74c-1.526.497-3.706.627-5.552.499-.563-.04-.979-.109-1.448-.204v1.955c.953.16 1.887.251 3.002.251 1.471 0 2.819-.159 3.998-.427Zm-4.001-3.727c-3.774-.337-7.354.788-8.458 1.635-.252.193-.555.554-.53.841.127 1.12 1.683 2.294 3.99 3.023v-4.204c1.13.468 1.931.877 3.589.98 2.599.16 4.667-.264 5.306-.61.098-.055.124-.186.047-.267-.347-.367-1.512-1.178-3.944-1.398Z" fill="#2D2D2D" fill-rule="evenodd"/></svg><view id=".product-rating-quality" viewBox="0 128 48 48"/><svg width="48" height="48" viewBox="-2 -2 48 48" y="128" xmlns="http://www.w3.org/2000/svg"><path d="m28 13 5 6-11 12-11-12 5-6h12Zm-2.958 6h-6.317l3.158 8.291L25.042 19Zm5.244 0h-4.175l-2.969 7.793L30.286 19Zm-12.631 0h-3.942l6.746 7.36L17.655 19Zm3.183-4h-3.901l-2.501 3h3.358l3.044-3Zm1.045.374L19.219 18h5.329l-2.665-2.626Zm5.18-.374H22.93l3.044 3h3.59l-2.5-3Z" fill="#2D2D2D" fill-rule="nonzero"/></svg><view id=".product-rating-value" viewBox="48 128 48 48"/><svg width="48" height="48" viewBox="-2 -2 48 48" x="48" y="128" xmlns="http://www.w3.org/2000/svg"><path d="m23 11 1 .998h8v7h2v6l-.554.001h-.616l-.83-.001v7H10v-20h12L23 11Zm-3.17 2.991h-7.913v16.007l.963.007 16.32-.007.8.007v-5.003h-4v-6.007h4v-1.994H13.997v-1.003h3.667l2.166-2.007Zm13.21 6.007H27v4h6.04v-4Zm-4.037 1c.51 0 .997.49.997 1s-.487 1-.997 1-1.003-.49-1.003-1 .493-1 1.003-1Zm1.157-7h-3.999l2.118 2h1.881v-2ZM23 12.454l-3.876 3.54h7.726L23 12.455Z" fill="#2D2D2D" fill-rule="nonzero"/></svg><view id=".product-ratings-empty" viewBox="130 220 18 18"/><svg width="18" height="18" viewBox="-2 -2 18 18" x="130" y="220" xmlns="http://www.w3.org/2000/svg"><path d="M6.99 1.645 5.217 5.111l-3.764.719 2.649 2.924-.502 3.939 3.391-1.717 3.411 1.72L9.9 8.753l2.648-2.924-3.78-.718L6.99 1.645Z" stroke="#2D2D2D" stroke-width="1.5" fill="none" fill-rule="evenodd"/></svg><view id=".product-ratings-full" viewBox="148 220 18 18"/><svg width="18" height="18" viewBox="-2 -2 18 18" x="148" y="220" xmlns="http://www.w3.org/2000/svg"><path d="m6.99 0 2.277 4.443 4.733.9-3.313 3.658.637 4.999-4.333-2.183L2.676 14l.637-4.999L0 5.343l4.715-.9z" fill="#2D2D2D" fill-rule="evenodd"/></svg><view id=".product-ratings-half" viewBox="166 220 18 18"/><svg width="18" height="18" viewBox="-2 -2 18 18" x="166" y="220" xmlns="http://www.w3.org/2000/svg"><g fill="none" fill-rule="evenodd"><path d="M6.99 1.645 5.217 5.111l-3.764.719 2.649 2.924-.502 3.939 3.391-1.717 3.411 1.72L9.9 8.753l2.648-2.924-3.78-.718L6.99 1.645Z" stroke="#2D2D2D" stroke-width="1.5"/><path fill="#2D2D2D" d="M6.99 0v11.817L2.677 14l.637-4.999L0 5.343l4.715-.9z"/></g></svg><view id=".product-returns" viewBox="48 220 24 21"/><svg width="24" height="21" viewBox="-2 -2 24 21" x="48" y="220" xmlns="http://www.w3.org/2000/svg"><path fill="#2D2D2D" fill-rule="evenodd" d="m3.821 5.174 1.826 1.825-1.394 1.394-2.818-2.818-.031.03L.01 4.213l.031-.03-.03-.032 1.393-1.393.03.03L4.254-.03l1.394 1.394-1.84 1.84h9.285C16.907 3.203 20 6.299 20 10.1c0 3.811-3.094 6.9-6.908 6.9H2v-1.971h11.071a4.927 4.927 0 1 0 0-9.855h-9.25z"/></svg><view id=".product-returns-box" viewBox="220 196 20 20"/><svg width="20" height="20" viewBox="-2 -2 20 20" x="220" y="196" xmlns="http://www.w3.org/2000/svg"><path d="m9.09 11.273-1.043 1.09L5.09 9.456 8 6.545l1.09 1.091-1.308 1.09 7.49.001v6.546H.728V3.349L2.91.727h10.182l2.182 2.622v3.924h-1.455V5.09H2.182v8.727h11.636v-3.636H7.781l1.31 1.09ZM7.273 2.18H3.636l-1.09 1.455h4.726V2.181Zm5.092 0H8.727v1.455h4.728l-1.091-1.454Z" fill="#2D2D2D" fill-rule="evenodd"/></svg><view id=".product-riverty-logo-info" viewBox="0 0 97 20"/><svg width="97" height="20" fill="none" viewBox="-2 -2 97 20" xmlns="http://www.w3.org/2000/svg"><path d="m69.2 3.955-2 2.666-2.133-2.666H62.8l3.467 4.4v3.6H68v-3.6l3.467-4.4H69.2ZM52.667 3.955v1.6H55.6v6.4h1.867v-6.4H60.4v-1.6h-7.733ZM47.467 11.955l-2-2.934h-2v2.934H41.6v-8h4.8c1.867 0 2.8.933 2.8 2.533 0 1.333-.533 2.133-1.733 2.4l2.133 3.067h-2.133Zm-4-4.534h2.666c.8 0 1.2-.266 1.2-.933s-.4-.933-1.2-.933h-2.666V7.42ZM29.334 3.955v8h7.333v-1.6H31.2v-1.6h4.667v-1.6H31.2v-1.6h5.467v-1.6h-7.334ZM23.6 3.955 21.2 9.82l-2.266-5.866h-2l3.333 8h1.867l3.333-8H23.6ZM13.067 3.955H11.2v8h1.867v-8ZM1.867 5.821H0v6.134h1.867V5.82ZM8 3.955H1.868V5.82h6.134V3.955Z" fill="#2B2B2A"/><path fill-rule="evenodd" clip-rule="evenodd" d="M84.421 1.591a6.364 6.364 0 1 0 0 12.727 6.364 6.364 0 0 0 0-12.727Zm0 14.318a7.955 7.955 0 1 1 0-15.909 7.955 7.955 0 0 1 0 15.91Zm-.795-9.144v4.773h1.59V6.765h-1.59Zm0-1.992a.8.8 0 0 0 .795.795.8.8 0 0 0 .796-.795.8.8 0 0 0-.796-.796.8.8 0 0 0-.795.796Z" fill="#2D2D2D"/></svg><view id=".product-saved-for-later-count" viewBox="111 220 19 18"/><svg width="19" height="18" viewBox="-2 -2 19 18" x="111" y="220" xmlns="http://www.w3.org/2000/svg"><defs><path d="M7.27 1.636C6.496.848 5.21.006 4.04.008 1.68.01-.002 1.639 0 4.09c.007 5.634 7.273 9 7.283 9 .01 0 7.27-3.365 7.262-9-.003-2.452-1.68-4.094-4.04-4.091C9.337 0 8.04.845 7.27 1.636Z" id="bya"/></defs><use fill="#FFF" xlink:href="#bya" fill-rule="evenodd"/></svg><view id=".product-shamrock-icon" viewBox="24 244 16 19"/><svg width="16" height="19" viewBox="-2 -2 16 19" x="24" y="244" xmlns="http://www.w3.org/2000/svg"><path fill="#007517" fill-rule="evenodd" d="M11.038 5.163c-1.067-.621-2.43-.459-3.5-.155.78-.785 1.568-1.881 1.566-3.104C9.103.851 8.29 0 7.287 0c-.64.001-.966.505-1.21.801l-.062.062L5.95.801C5.72.465 5.417.003 4.74.004 3.738.005 2.926.86 2.927 1.913c.002 1.213.78 2.3 1.555 3.081-1.075-.306-2.45-.472-3.523.157-.901.528-1.224 1.666-.722 2.543.32.561.915.595 1.29.66l.085.024-.021.086c-.173.37-.416.868-.077 1.46.502.877 1.64 1.16 2.54.633.68-.398 1.147-1.061 1.467-1.771.079 1.594.275 3.916 1.886 5.508l.707-.74c-1.762-1.741-2.022-4.125-1.971-5.673.298 1.017.837 2.129 1.813 2.696.902.525 2.039.239 2.54-.64.319-.56.05-1.098-.081-1.46l-.023-.085.085-.024c.404-.034.952-.069 1.29-.663.5-.878.172-2.016-.73-2.542"/></svg><view id=".product-share-icon" viewBox="220 70 21 24"/><svg width="21" height="24" viewBox="-2 -2 21 24" x="220" y="70" xmlns="http://www.w3.org/2000/svg"><defs><path id="caa" d="M23.45 16.068v9.557h-2.1v-9.663l-2.717 2.717-1.481-1.482 3.714-3.714-.002-.001L22.346 12l.001.002.002-.002 1.481 1.482-.001.001 3.714 3.714-1.482 1.482-2.611-2.611zm7.35 15.855H14v-9.44h2.067v7.387s12.689.04 12.689 0v-7.388H30.8v9.441z"/></defs><use fill="#2D2D2D" fill-rule="evenodd" transform="translate(-14 -12)" xlink:href="#caa"/></svg><view id=".product-tick-white" viewBox="0 244 24 24"/><svg width="24" height="24" viewBox="-2 -2 24 24" y="244" xmlns="http://www.w3.org/2000/svg"><path fill="#FFF" fill-rule="evenodd" d="m8.377 11.25 4.75-4.75 1.457 1.457-4.75 4.75.036.036-1.572 1.571-2.742-2.743L7.126 10l1.25 1.25zM10 20C4.477 20 0 15.523 0 10S4.477 0 10 0s10 4.477 10 10-4.477 10-10 10zm0-18a8 8 0 1 0 0 16 8 8 0 0 0 0-16z"/></svg><view id=".product-tinyheart-icon-pink" viewBox="75 58 20 20"/><svg width="20" height="20" viewBox="13 15 17 15" x="75" y="58" xmlns="http://www.w3.org/2000/svg"><path fill="#F77FFF" fill-rule="evenodd" d="M24.058 18c-.803 0-1.53.337-2.06.881a2.874 2.874 0 0 0-2.063-.876c-1.623.002-2.936 1.371-2.935 3.057.005 3.873 5.007 5.938 5.007 5.938s4.998-2.077 4.993-5.952c-.002-1.685-1.319-3.05-2.942-3.048z"/></svg><view id=".product-tinyheart-icon-red" viewBox="72 220 20 20"/><svg width="20" height="20" viewBox="13 15 17 15" x="72" y="220" xmlns="http://www.w3.org/2000/svg"><path fill="#D0021B" fill-rule="evenodd" d="M24.058 18c-.803 0-1.53.337-2.06.881a2.874 2.874 0 0 0-2.063-.876c-1.623.002-2.936 1.371-2.935 3.057.005 3.873 5.007 5.938 5.007 5.938s4.998-2.077 4.993-5.952c-.002-1.685-1.319-3.05-2.942-3.048z"/></svg><view id=".product-van-small" viewBox="96 128 48 48"/><svg width="48" height="48" viewBox="-2 -2 48 48" x="96" y="128" xmlns="http://www.w3.org/2000/svg"><defs><path d="M12.277 27.714H10V14h15.75l.75 1.524h3.75C31.5 17.548 34 20.857 34 20.857v6.857h-2.337C31.541 28.974 30.658 30 29.137 30s-2.459-1.085-2.525-2.286h-9.139C17.291 29.007 16.197 30 14.875 30c-1.322 0-2.416-.993-2.598-2.286Zm4.972-1.52a2.623 2.623 0 0 0-2.374-1.527 2.623 2.623 0 0 0-2.373 1.526M32.5 23.905v2.285h-.856c-.539-.993-1.36-1.495-2.465-1.504-1.17-.01-2.026.492-2.567 1.504H26.5v-9.142h3l3 4.571v2.286Zm-.488-3.048.489.762H28v-3.048h2.493l1.283 1.948.236.338ZM11.5 15.524H25V26.19H11.5V15.524ZM29.125 26.19c.621 0 1.125.512 1.125 1.143 0 .632-.504 1.143-1.125 1.143A1.134 1.134 0 0 1 28 27.333c0-.63.504-1.143 1.125-1.143Zm-14.25 0c.621 0 1.125.512 1.125 1.143 0 .632-.504 1.143-1.125 1.143a1.134 1.134 0 0 1-1.125-1.143c0-.63.504-1.143 1.125-1.143Zm16.901-5.671-.825-1.186H28.75v1.524h3.249l-.223-.338Z" id="cea"/></defs><use fill="#2D2D2D" xlink:href="#cea" fill-rule="evenodd"/></svg><view id=".product-vk-icon" viewBox="88 176 44 44"/><svg width="44" height="44" viewBox="-2 -2 44 44" x="88" y="176" xmlns="http://www.w3.org/2000/svg"><g fill="none" fill-rule="evenodd"><path fill="#507299" d="M20 40c11.046 0 20-8.954 20-20S31.046 0 20 0 0 8.954 0 20s8.954 20 20 20z"/><path fill="#FFF" d="M18.743 27.941h1.434s.433-.048.655-.292c.203-.224.197-.644.197-.644s-.028-1.969.865-2.258c.88-.286 2.012 1.902 3.21 2.743.907.636 1.596.497 1.596.497l3.205-.046s1.676-.105.881-1.453c-.065-.11-.463-.997-2.383-2.82-2.01-1.907-1.74-1.598.68-4.897 1.475-2.01 2.064-3.236 1.88-3.762-.176-.5-1.26-.368-1.26-.368l-3.609.023s-.267-.037-.466.084c-.194.119-.318.396-.318.396s-.572 1.555-1.333 2.877c-1.607 2.79-2.25 2.938-2.512 2.764-.611-.404-.458-1.622-.458-2.487 0-2.704.4-3.832-.782-4.123-.392-.097-.68-.162-1.684-.172-1.288-.013-2.378.004-2.994.313-.411.206-.728.664-.535.69.239.033.779.15 1.065.548.37.514.357 1.67.357 1.67s.213 3.182-.496 3.577c-.487.272-1.154-.282-2.587-2.813-.734-1.297-1.288-2.73-1.288-2.73s-.106-.268-.297-.411c-.231-.174-.555-.229-.555-.229l-3.429.023s-.515.015-.703.244c-.169.203-.014.624-.014.624s2.685 6.423 5.724 9.66c2.789 2.967 5.954 2.772 5.954 2.772z"/></g></svg><view id=".product-warning-prop65" viewBox="242 34 30 26"/><svg width="30" height="26" viewBox="-2 -2 30 26" x="242" y="34" xmlns="http://www.w3.org/2000/svg"><g fill="none" fill-rule="evenodd"><path d="M-9-10h44v44H-9z"/><g fill-rule="nonzero"><path d="M11.268 1 .876 19c-.77 1.333.192 3 1.732 3h20.784c1.54 0 2.502-1.667 1.732-3L14.732 1c-.77-1.333-2.694-1.333-3.464 0Z" fill="#2D2D2D"/><path fill="#FFF03C" d="m13 2 10.392 18H2.608z"/><path fill="#2D2D2D" d="M12 16v2h2v-2zM14 11V8h-2v3l1 4z"/></g></g></svg><view id=".product-whatsapp-icon" viewBox="132 176 44 44"/><svg height="44" width="44" viewBox="-2 -2 44 44" x="132" y="176" xmlns="http://www.w3.org/2000/svg"><g fill="none" fill-rule="evenodd"><rect fill="#0f8f45" height="40" rx="40" width="40"/><path d="M24.754 21.888c-.054-.089-.2-.143-.418-.252-.22-.11-1.294-.635-1.495-.705-.2-.073-.346-.11-.492.107-.145.218-.564.707-.693.85-.127.145-.254.163-.473.054-.218-.107-.923-.337-1.759-1.076-.65-.576-1.088-1.284-1.216-1.502-.127-.218-.013-.335.097-.442.097-.097.217-.255.327-.38.11-.127.146-.218.219-.363.073-.144.036-.271-.019-.38-.054-.109-.491-1.174-.673-1.611-.183-.433-.365-.361-.492-.361-.128 0-.273-.018-.42-.018a.807.807 0 0 0-.583.272c-.2.216-.765.74-.765 1.81 0 1.067.783 2.1.893 2.242.109.145 1.513 2.407 3.735 3.275 2.224.87 2.224.58 2.624.543.4-.036 1.293-.525 1.476-1.031.183-.507.183-.942.127-1.032zm-4.504-9.479c-4.136 0-7.5 3.338-7.5 7.442 0 1.627.532 3.135 1.43 4.363l-.937 2.763 2.882-.916a7.498 7.498 0 0 0 4.125 1.231c4.136 0 7.5-3.339 7.5-7.441 0-4.104-3.364-7.442-7.5-7.442zm8.92 7.442c0 4.887-3.993 8.85-8.92 8.85a8.93 8.93 0 0 1-4.312-1.102L11 29.17l1.61-4.75a8.758 8.758 0 0 1-1.28-4.57c0-4.89 3.994-8.85 8.92-8.85 4.927 0 8.92 3.96 8.92 8.85z" fill="#fff"/></g></svg></svg>